<?xml version="1.0" encoding="UTF-8"?>
<svg version="1.1" xmlns="http://www.w3.org/2000/svg" width="32" height="31">
<path d="M0 0 C10.56 0 21.12 0 32 0 C32 10.23 32 20.46 32 31 C21.44 31 10.88 31 0 31 C0 20.77 0 10.54 0 0 Z " fill="#0BBEB3" transform="translate(0,0)"/>
<path d="M0 0 C3.71404533 1.962499 7.36970851 4.07846271 8.72265625 8.203125 C8.81417969 8.79609375 8.90570312 9.3890625 9 10 C7.89932004 10.81721717 6.79430269 11.62859451 5.6875 12.4375 C5.07261719 12.88996094 4.45773438 13.34242187 3.82421875 13.80859375 C-0.10089569 16.37210532 -4.45861905 16.86962614 -9 16 C-13.16395595 13.73136193 -16.47450434 11.57648699 -18 7 C-16.70982586 6.01886757 -15.41780894 5.04015801 -14.125 4.0625 C-13.04605469 3.24458984 -13.04605469 3.24458984 -11.9453125 2.41015625 C-8.14740851 -0.34294283 -4.58832705 -0.85680802 0 0 Z " fill="#DAF5F3" transform="translate(20,6)"/>
<path d="M0 0 C3 0.25 3 0.25 5 2.25 C5.333728 5.38704316 5.52849028 7.41554166 3.8125 10.125 C1.31963619 11.67229478 -0.11967335 11.75405716 -3 11.25 C-4.875 9.5625 -4.875 9.5625 -6 7.25 C-5.67747519 2.7346526 -4.81889451 0.40157454 0 0 Z " fill="#25C1B3" transform="translate(16,8.75)"/>
<path d="M0 0 C-0.350625 0.53625 -0.70125 1.0725 -1.0625 1.625 C-2.28924249 4.73274763 -1.72856431 6.79431703 -1 10 C0.98 10.66 2.96 11.32 5 12 C5 12.33 5 12.66 5 13 C0.9544161 13.49537762 -2.54841479 13.85201741 -6.15625 11.734375 C-7.93216744 10.23503486 -9.54139056 8.81036413 -11 7 C-11 6.34 -11 5.68 -11 5 C-5.11138162 -0.75167377 -5.11138162 -0.75167377 0 0 Z " fill="#EAF9F7" transform="translate(13,8)"/>
<path d="M0 0 C0.99 0.33 1.98 0.66 3 1 C2.67 1.66 2.34 2.32 2 3 C2.99 2.67 3.98 2.34 5 2 C4.67 3.32 4.34 4.64 4 6 C2.35 5.67 0.7 5.34 -1 5 C-0.67 3.35 -0.34 1.7 0 0 Z " fill="#026765" transform="translate(14,11)"/>
<path d="M0 0 C1.70884005 1.62339805 3.37446717 3.29319053 5 5 C5 5.66 5 6.32 5 7 C5.99 7.33 6.98 7.66 8 8 C5.6875 8.25 5.6875 8.25 3 8 C1.1875 6.25 1.1875 6.25 0 4 C0 2.68 0 1.36 0 0 Z " fill="#2EC9BC" transform="translate(10,12)"/>
<path d="M0 0 C0.66 0 1.32 0 2 0 C2.125 2.875 2.125 2.875 2 6 C1.34 6.66 0.68 7.32 0 8 C-1.32 8 -2.64 8 -4 8 C-4 7.34 -4 6.68 -4 6 C-3.01 5.67 -2.02 5.34 -1 5 C-0.67 3.35 -0.34 1.7 0 0 Z " fill="#0ABFB0" transform="translate(19,11)"/>
</svg>
